<?xml version="1.0" encoding="UTF-8"?>
<svg width="16px" height="18px" viewBox="0 0 16 18" version="1.1" xmlns="http://www.w3.org/2000/svg" xmlns:xlink="http://www.w3.org/1999/xlink">
    <title>location (1)</title>
    <g id="Page-1" stroke="none" stroke-width="1" fill="none" fill-rule="evenodd">
        <g id="Task-creation---one-off-task" transform="translate(-473.000000, -503.000000)" fill="#C3C3C3" fill-rule="nonzero">
            <g id="location-(1)" transform="translate(473.000000, 503.000000)">
                <path d="M8.54668,3.84 C9.72428,3.84 10.68,4.79572 10.68,5.97332 C10.68,6.60052 10.40268,7.15944 9.97172,7.552 L13.06932,10.6496 C13.90132,9.0624 14.52,7.4112 14.52,5.97332 C14.52,2.6752 11.8448,0 8.54668,0 C6.85708,0 5.33388,0.704 4.25016,1.8304 L6.96804,4.54828 C7.35628,4.11732 7.91948,3.84 8.54668,3.84 Z" id="Path"></path>
                <path d="M12.28,12.032 L8.33332,8.08532 L8.23944,7.99144 L1.09708,0.85332 L0.01336,1.94132 L2.72696,4.65492 C2.62884,5.07732 2.57336,5.5168 2.57336,5.97332 C2.57336,10.45332 8.54668,17.06664 8.54668,17.06664 C8.54668,17.06664 9.97176,15.48796 11.42668,13.35464 L14.28536,16.21332 L15.37336,15.12532 L12.28,12.032 Z" id="Path"></path>
            </g>
        </g>
    </g>
</svg>